#!OML:ASF F:\VICON\USERDATA\INSTALL\rory3\rory3.ASF
:FULLY-SPECIFIED
:DEGREES
110
root 1.2077864054075858 17.879875481303397 47.05922287270623 -4.113730891702846 1.4160000903124403 0.2779236823582196
lfemur 1.4447077631333105 -3.2718342592482577 -23.29418062850206
ltibia 42.281295641478025
lfoot -17.88117904711651 -0.6871136486148162
ltoes -9.920685053222686
rfemur -16.940088860023415 0.06348868725056578 22.079184768939463
rtibia 31.483248918227805
rfoot -0.2791515532555584 -9.713436968458039
rtoes 9.549448678549465
lowerback 10.530670986763177 -0.6983036357586136 -1.759530162501743
upperback -0.08761417027368776 -1.3559042331407258 1.3575255736996614
thorax -6.116850763878498 -0.5927986256795701 3.196771220777586
lowerneck -16.617354212972504 -3.381553291814832 -1.580319514604059
upperneck 21.541932496999046 -4.636883955708258 1.2468096600344865
head 9.661895498072521 -2.163831645531179 0.08636202805238863
lclavicle -2.7003079518071847e-15 -2.1517147062446438e-15
lhumerus -27.865170268897863 1.4874375456986755 82.13150570490814
lradius 25.182076611569734
lwrist 10.657273739412869
lhand -29.235472231159715 15.23320085521829
lfingers 7.125020000000001
lthumb -2.8340449839708115 44.81700381917783
rclavicle -2.70030795174731e-15 -2.151714706203267e-15
rhumerus -33.81932737110471 -22.52332833757496 -76.67900730545843
rradius 25.79272484047997
rwrist 6.689669757727055
rhand -17.9087249645905 21.65864744703042
rfingers 7.125020000000001
rthumb 8.450706808114415 -7.640636501616799
111
root 1.2008676054353462 17.857506916665038 46.569566990475906 -4.198784593924729 1.0854459308277025 0.45083495698531717
lfemur 2.912729013658593 -3.2050346802789305 -23.38469667859687
ltibia 41.78993950789601
lfoot -18.030593898911015 -0.2809816877396778
ltoes -7.494092120092298
rfemur -17.991717790390428 0.2673512734973642 22.04778627102287
rtibia 31.605721007260847
rfoot -0.5624277702006379 -9.74999757833553
rtoes 10.681844768766139
lowerback 10.588740151055706 -0.8195322545335111 -2.141047728104637
upperback -0.05690978639831185 -1.600778352531402 1.339389877600422
thorax -6.097979618059402 -0.6969824873270362 3.4699810421299677
lowerneck -16.707926914366457 -3.3601342908359815 -1.5795469165257046
upperneck 21.52719305784152 -4.592711749036292 1.2751715525005987
head 9.673837180844384 -2.144869411649108 0.10147907507214035
lclavicle -2.7003079518127383e-15 -2.1517147062479038e-15
lhumerus -28.176790135600527 1.706087044918585 82.34623147275543
lradius 24.69037291203643
lwrist 10.768086945246933
lhand -29.42973846169868 15.304184227764207
lfingers 7.125020000000001
lthumb -3.0350561499148023 44.79444389697308
rclavicle -2.7003079517544036e-15 -2.1517147062076123e-15
rhumerus -33.53763753982367 -22.539960045496784 -76.91698822257203
rradius 25.783914721374643
rwrist 6.751055536154498
rhand -17.924738001568564 21.510832002527735
rfingers 7.125020000000001
rthumb 8.400867168030368 -7.97924973139506
112
root 1.1881805221927682 17.851256153206688 46.47963535413744 -4.01169147467538 0.829412977606973 0.21278706098060463
lfemur 3.7700321446699405 -3.111023679648576 -23.14255018159092
ltibia 41.53995474055452
lfoot -18.075399079647845 0.10245189324044324
ltoes -12.256410807497366
rfemur -18.875327814988587 0.5185039215862821 22.36798277087924
rtibia 30.821588694062875
rfoot -0.8033662671986272 -9.690004901373669
rtoes 10.169230212314385
lowerback 10.597877386222825 -0.9551144033386443 -2.134010113179083
upperback -0.05168904263733356 -1.8038011919741075 1.388294649751552
thorax -6.124238625430523 -0.7930899227646893 3.671485484119161
lowerneck -16.816000385264406 -3.342028515806693 -1.5885878461774376
upperneck 21.453269463560417 -4.548967350288922 1.2977208405777392
head 9.668639021903871 -2.1251678899158164 0.11030477837972988
lclavicle -2.700307951819039e-15 -2.151714706251734e-15
lhumerus -28.514622078700523 1.8548106704869392 82.54215655455
lradius 24.378072493050617
lwrist 10.503627800292282
lhand -29.375522100900735 16.136082158202427
lfingers 7.125020000000001
lthumb -2.9160005800475335 45.912240168126495
rclavicle -2.7003079517539414e-15 -2.1517147062068333e-15
rhumerus -33.37343652396669 -22.522866101144277 -76.97210807418298
rradius 25.849999008764343
rwrist 6.466832423538364
rhand -17.869316309499887 21.526047946578434
rfingers 7.125020000000001
rthumb 8.470280265938262 -8.15780031153189
113
root 1.1878047911686527 17.83882182104826 46.50436558085498 -4.036047679356226 0.5373150174434967 0.3574788796476298
lfemur 4.775008432406679 -3.0480898753040044 -23.219515304389727
ltibia 41.34995626324161
lfoot -18.101271051439387 0.3225271347684031
ltoes -11.13806823203847
rfemur -19.63616459932963 0.7351615363790382 22.429943538947988
rtibia 30.18458288936778
rfoot -0.9602696982844066 -9.53153212507468
rtoes 11.187268985814072
lowerback 10.618168155604376 -1.0812095860483673 -2.37613667991832
upperback -0.053038962646472565 -1.967959050144512 1.4425199011379255
thorax -6.1222563230577425 -0.8882254422696696 3.826556741553128
lowerneck -16.87113753000025 -3.317449272248257 -1.5946548669848593
upperneck 21.373995713358042 -4.508254113634559 1.3344604526557635
head 9.642888682892927 -2.1073818864497613 0.13091914801189514
lclavicle -2.7003079518206853e-15 -2.15171470625239e-15
lhumerus -28.809470733590995 2.0819649646873604 82.71979573973618
lradius 24.111780069149113
lwrist 10.105771417080526
lhand -29.56981732280535 16.39561620386664
lfingers 7.125020000000001
lthumb -3.0753636206659016 46.147209602456904
rclavicle -2.700307951759512e-15 -2.151714706210156e-15
rhumerus -33.188150662277685 -22.481831803724827 -77.01027150639553
rradius 25.95032406570995
rwrist 6.318670569440121
rhand -17.8398442107847 21.505962851548592
rfingers 7.125020000000001
rthumb 8.465828093585127 -8.319070936974018
